HIERARCHY
ROOT hip
{
  OFFSET 0 0 0
  CHANNELS 6 Xposition Yposition Zposition Zrotation Yrotation Xrotation
  JOINT abdomen
  {
    OFFSET 0 20.6881 -0.73152
    CHANNELS 3 Zrotation Xrotation Yrotation
    JOINT chest
    {
      OFFSET 0 11.7043 -0.48768
      CHANNELS 3 Zrotation Xrotation Yrotation
      JOINT neck
      {
        OFFSET 0 22.1894 -2.19456
        CHANNELS 3 Zrotation Xrotation Yrotation
        JOINT head
        {
          OFFSET -0.24384 7.07133 1.2192
          CHANNELS 3 Zrotation Xrotation Yrotation
          JOINT leftEye
          {
            OFFSET 4.14528 8.04674 8.04672
            CHANNELS 3 Zrotation Xrotation Yrotation
            End Site
            {
              OFFSET 1 0 0
            }
          }
          JOINT rightEye
          {
            OFFSET -3.6576 8.04674 8.04672
            CHANNELS 3 Zrotation Xrotation Yrotation
            End Site
            {
              OFFSET 1 0 0
            }
          }
        }
      }
      JOINT rCollar
      {
        OFFSET -2.68224 19.2634 -4.8768
        CHANNELS 3 Zrotation Xrotation Yrotation
        JOINT rShldr
        {
          OFFSET -8.77824 -1.95073 1.46304
          CHANNELS 3 Zrotation Xrotation Yrotation
          JOINT rForeArm
          {
            OFFSET -28.1742 -1.7115 0.48768
            CHANNELS 3 Zrotation Xrotation Yrotation
            JOINT rHand
            {
              OFFSET -22.5879 0.773209 7.07136
              CHANNELS 3 Zrotation Xrotation Yrotation
              JOINT rThumb1
              {
                OFFSET -1.2192 -0.487915 3.41376
                CHANNELS 3 Zrotation Xrotation Yrotation
                JOINT rThumb2
                {
                  OFFSET -3.37035 -0.52449 3.41376
                  CHANNELS 3 Zrotation Xrotation Yrotation
                  End Site
                  {
                    OFFSET -1.78271 -1.18214 1.43049
                  }
                }
              }
              JOINT rIndex1
              {
                OFFSET -7.75947 0.938293 5.60832
                CHANNELS 3 Zrotation Xrotation Yrotation
                JOINT rIndex2
                {
                  OFFSET -2.54057 -0.884171 1.56538
                  CHANNELS 3 Zrotation Xrotation Yrotation
                  End Site
                  {
                    OFFSET -1.62519 -0.234802 1.16502
                  }
                }
              }
              JOINT rMid1
              {
                OFFSET -8.24714 1.18213 3.41376
                CHANNELS 3 Zrotation Xrotation Yrotation
                JOINT rMid2
                {
                  OFFSET -3.10165 -0.590103 1.0647
                  CHANNELS 3 Zrotation Xrotation Yrotation
                  End Site
                  {
                    OFFSET -2.48547 -0.328903 0.83742
                  }
                }
              }
              JOINT rRing1
              {
                OFFSET -8.82822 0.546677 1.51678
                CHANNELS 3 Zrotation Xrotation Yrotation
                JOINT rRing2
                {
                  OFFSET -2.60934 -0.819778 -0.0198488
                  CHANNELS 3 Zrotation Xrotation Yrotation
                  End Site
                  {
                    OFFSET -2.33842 -0.294052 0.168128
                  }
                }
              }
              JOINT rPinky1
              {
                OFFSET -8.27202 -0.0477905 -0.4584
                CHANNELS 3 Zrotation Xrotation Yrotation
                JOINT rPinky2
                {
                  OFFSET -1.82734 -0.647385 -0.700984
                  CHANNELS 3 Zrotation Xrotation Yrotation
                  End Site
                  {
                    OFFSET -1.69225 -0.51767 -0.607171
                  }
                }
              }
            }
          }
        }
      }
      JOINT lCollar
      {
        OFFSET 2.68224 19.2634 -4.8768
        CHANNELS 3 Zrotation Xrotation Yrotation
        JOINT lShldr
        {
          OFFSET 8.77824 -1.95073 1.46304
          CHANNELS 3 Zrotation Xrotation Yrotation
          JOINT lForeArm
          {
            OFFSET 28.1742 -1.7115 0.48768
            CHANNELS 3 Zrotation Xrotation Yrotation
            JOINT lHand
            {
              OFFSET 22.5879 0.773209 7.07136
              CHANNELS 3 Zrotation Xrotation Yrotation
              JOINT lThumb1
              {
                OFFSET 1.2192 -0.487915 3.41376
                CHANNELS 3 Zrotation Xrotation Yrotation
                JOINT lThumb2
                {
                  OFFSET 3.37035 -0.52449 3.41376
                  CHANNELS 3 Zrotation Xrotation Yrotation
                  End Site
                  {
                    OFFSET 1.78271 -1.18214 1.43049
                  }
                }
              }
              JOINT lIndex1
              {
                OFFSET 7.75947 0.938293 5.60832
                CHANNELS 3 Zrotation Xrotation Yrotation
                JOINT lIndex2
                {
                  OFFSET 2.54057 -0.884171 1.56538
                  CHANNELS 3 Zrotation Xrotation Yrotation
                  End Site
                  {
                    OFFSET 1.62519 -0.234802 1.16502
                  }
                }
              }
              JOINT lMid1
              {
                OFFSET 8.24714 1.18213 3.41376
                CHANNELS 3 Zrotation Xrotation Yrotation
                JOINT lMid2
                {
                  OFFSET 3.10165 -0.590103 1.0647
                  CHANNELS 3 Zrotation Xrotation Yrotation
                  End Site
                  {
                    OFFSET 2.48547 -0.328903 0.83742
                  }
                }
              }
              JOINT lRing1
              {
                OFFSET 8.82822 0.546677 1.51678
                CHANNELS 3 Zrotation Xrotation Yrotation
                JOINT lRing2
                {
                  OFFSET 2.60934 -0.819778 -0.0198488
                  CHANNELS 3 Zrotation Xrotation Yrotation
                  End Site
                  {
                    OFFSET 2.33842 -0.294052 0.168128
                  }
                }
              }
              JOINT lPinky1
              {
                OFFSET 8.27202 -0.0477905 -0.4584
                CHANNELS 3 Zrotation Xrotation Yrotation
                JOINT lPinky2
                {
                  OFFSET 1.82734 -0.647385 -0.700984
                  CHANNELS 3 Zrotation Xrotation Yrotation
                  End Site
                  {
                    OFFSET 1.69225 -0.51767 -0.607171
                  }
                }
              }
            }
          }
        }
      }
    }
  }
  JOINT rButtock
  {
    OFFSET -8.77824 4.35084 1.2192
    CHANNELS 3 Zrotation Xrotation Yrotation
    JOINT rThigh
    {
      OFFSET 0 -1.70687 -2.19456
      CHANNELS 3 Zrotation Xrotation Yrotation
      JOINT rShin
      {
        OFFSET 0 -36.8199 0.73152
        CHANNELS 3 Zrotation Xrotation Yrotation
        JOINT rFoot
        {
          OFFSET 0.73152 -45.1104 -5.12064
          CHANNELS 3 Zrotation Xrotation Yrotation
          End Site
          {
            OFFSET -1.1221 -3.69964 12.103
          }
        }
      }
    }
  }
  JOINT lButtock
  {
    OFFSET 8.77824 4.35084 1.2192
    CHANNELS 3 Zrotation Xrotation Yrotation
    JOINT lThigh
    {
      OFFSET 0 -1.70687 -2.19456
      CHANNELS 3 Zrotation Xrotation Yrotation
      JOINT lShin
      {
        OFFSET 0 -36.8199 0.73152
        CHANNELS 3 Zrotation Xrotation Yrotation
        JOINT lFoot
        {
          OFFSET -0.73152 -45.1104 -5.12064
          CHANNELS 3 Zrotation Xrotation Yrotation
          End Site
          {
            OFFSET 1.1221 -3.69964 12.103
          }
        }
      }
    }
  }
}
MOTION
Frames:	6
Frame Time:	0.00833333
-6.07461 83.9048 31.9293 -3.7452 -0.4279 3.2695 -9.86728 6.92667 6.95631 -2.50245 -1.78004 1.75768 -1.89149 3.9051 0.914624 -0.149121 18.4966 2.46395 -0.0 0.0 0.0 -0.0 0.0 0.0 3.34042e-13 3.02217e-14 3.35946e-14 -28.2008 43.9495 58.7663 -25.756 -46.7299 97.1176 -0.716044 -23.3058 -3.471 -6.07941e-10 -4.38061e-10 1.18118e-09 -1.07384e-09 -7.68234e-10 2.03367e-09 -6.0794e-10 -4.38056e-10 1.18117e-09 7.73091 5.47488 0.417314 -6.07944e-10 -4.38057e-10 1.18118e-09 2.90554 0.965183 0.102902 -6.0794e-10 -4.38055e-10 1.18119e-09 10.2786 0.731801 0.0259123 -6.07947e-10 -4.38052e-10 1.1812e-09 2.22167 -0.733487 -0.20892 3.33897e-13 3.02079e-14 3.32467e-14 0.420317 36.9888 -55.3099 27.7677 -29.3716 -66.247 2.66638 -41.2429 7.07799 6.54208e-11 2.44068e-09 5.80391e-10 9.18007e-11 4.25659e-09 1.00208e-09 6.54236e-11 2.44068e-09 5.804e-10 -7.73091 5.47488 -0.417314 6.54321e-11 2.44066e-09 5.80388e-10 -2.90554 0.965183 -0.102902 6.54136e-11 2.44068e-09 5.80392e-10 -10.2786 0.731801 -0.0259123 6.54228e-11 2.44068e-09 5.80384e-10 -2.22167 -0.733487 0.20892 -2.03217e-16 0.0 -3.88251e-19 -21.7256 -2.83097 -0.00877407 0.00014025 -0.633318 0.00173685 0.576214 3.4612 -0.0265806 2.03217e-16 0.0 3.88251e-19 10.5981 -12.7865 -8.36745 0.0510031 22.3777 -0.587686 5.75016 -17.2251 18.066
-6.06053 83.9025 31.937 -3.7557 -0.4236 3.2928 -9.83092 6.91666 6.88844 -2.55762 -1.7196 1.73983 -1.87146 3.92442 0.95096 -0.253901 18.4269 2.54443 -0.0 0.0 0.0 -0.0 0.0 0.0 2.99037e-13 5.50151e-14 5.42504e-14 -26.5966 42.948 57.5242 -25.7767 -46.6524 97.0183 -0.695362 -22.7415 -3.37934 -3.82569e-10 -5.12237e-10 1.08803e-09 -6.82103e-10 -8.96533e-10 1.87586e-09 -3.82569e-10 -5.12232e-10 1.08801e-09 7.73091 5.47488 0.417314 -3.82572e-10 -5.12232e-10 1.08803e-09 2.90554 0.965183 0.102902 -3.82566e-10 -5.12231e-10 1.08803e-09 10.2786 0.731801 0.0259123 -3.82572e-10 -5.12228e-10 1.08804e-09 2.22167 -0.733487 -0.20892 2.98879e-13 5.50112e-14 5.39215e-14 0.373686 36.9634 -55.18 27.7718 -29.3911 -66.278 2.6526 -41.1594 7.05709 4.50755e-12 1.4869e-09 3.32071e-10 -4.72337e-12 2.58213e-09 5.71557e-10 4.51024e-12 1.4869e-09 3.32079e-10 -7.73091 5.47488 -0.417314 4.51779e-12 1.48688e-09 3.32069e-10 -2.90554 0.965183 -0.102902 4.49994e-12 1.4869e-09 3.32072e-10 -10.2786 0.731801 -0.0259123 4.50997e-12 1.4869e-09 3.32063e-10 -2.22167 -0.733487 0.20892 -2.03217e-16 0.0 -3.88251e-19 -21.7245 -2.83052 -0.00879967 0.00012876 -0.634615 0.00163755 0.574674 3.46207 -0.0263502 2.03217e-16 0.0 3.88251e-19 10.5557 -12.7774 -8.36967 0.0507804 22.3752 -0.586042 5.75932 -17.2616 18.0591
-6.02965 83.9032 31.9494 -3.7428 -0.4227 3.2853 -9.80145 6.92426 6.81555 -2.62034 -1.64908 1.72018 -1.84557 3.93938 0.982096 -0.36113 18.3756 2.61384 -0.0 0.0 0.0 -0.0 0.0 0.0 2.11276e-13 9.89872e-14 7.94642e-14 -24.8241 41.7212 56.3322 -25.8704 -46.4177 96.6144 -0.646548 -21.4868 -3.17787 6.40542e-11 -6.1227e-10 8.71069e-10 9.4979e-11 -1.06899e-09 1.50707e-09 6.40529e-11 -6.12264e-10 8.71058e-10 7.73091 5.47488 0.417314 6.40513e-11 -6.12264e-10 8.71065e-10 2.90554 0.965183 0.102902 6.40595e-11 -6.12262e-10 8.7107e-10 10.2786 0.731801 0.0259123 6.4055e-11 -6.12261e-10 8.71079e-10 2.22167 -0.733487 -0.20892 2.11128e-13 9.90015e-14 7.91691e-14 0.301327 36.9254 -55.0368 27.7763 -29.4131 -66.3131 2.63736 -41.0665 7.0339 -4.72398e-11 -4.45256e-10 -1.30218e-10 -7.8083e-11 -7.93261e-10 -2.27382e-10 -4.72385e-11 -4.45266e-10 -1.3021e-10 -7.73091 5.47488 -0.417314 -4.72321e-11 -4.45269e-10 -1.30217e-10 -2.90554 0.965183 -0.102902 -4.72481e-11 -4.45253e-10 -1.30217e-10 -10.2786 0.731801 -0.0259123 -4.72365e-11 -4.45253e-10 -1.30227e-10 -2.22167 -0.733487 0.20892 -2.03217e-16 0.0 -3.88251e-19 -21.7227 -2.83006 -0.0088389 0.000113665 -0.635114 0.00150521 0.57253 3.46215 -0.0260423 2.03217e-16 0.0 3.88251e-19 10.4946 -12.7812 -8.36232 0.0506235 22.3736 -0.584876 5.77023 -17.2862 18.0634
-5.98759 83.9041 31.9569 -3.6932 -0.4393 3.2836 -9.77591 6.9427 6.76825 -2.67205 -1.5897 1.70738 -1.82478 3.95307 1.00342 -0.45571 18.3454 2.66372 -0.0 0.0 0.0 -0.0 0.0 0.0 1.07265e-13 1.40375e-13 1.00007e-13 -23.2004 40.4772 55.4169 -26.0683 -46.0299 95.7905 -0.530298 -19.3429 -2.83457 5.43898e-10 -6.88504e-10 6.19493e-10 9.30177e-10 -1.19996e-09 1.07834e-09 5.43896e-10 -6.88499e-10 6.19485e-10 7.73091 5.47488 0.417314 5.43896e-10 -6.88497e-10 6.19487e-10 2.90554 0.965183 0.102902 5.43906e-10 -6.88497e-10 6.19492e-10 10.2786 0.731801 0.0259123 5.43903e-10 -6.88496e-10 6.19499e-10 2.22167 -0.733487 -0.20892 1.07137e-13 1.40408e-13 9.97437e-14 0.214623 36.8699 -54.9228 27.7798 -29.4298 -66.3398 2.62485 -40.9898 7.01484 -8.93315e-11 -2.45689e-09 -6.04711e-10 -1.34293e-10 -4.3045e-09 -1.04691e-09 -8.93318e-11 -2.45691e-09 -6.04702e-10 -7.73091 5.47488 -0.417314 -8.93267e-11 -2.45689e-09 -6.04706e-10 -2.90554 0.965183 -0.102902 -8.93404e-11 -2.45689e-09 -6.0471e-10 -10.2786 0.731801 -0.0259123 -8.93271e-11 -2.45689e-09 -6.04721e-10 -2.22167 -0.733487 0.20892 -2.03217e-16 0.0 -3.88251e-19 -21.7205 -2.82981 -0.00888269 9.88508e-05 -0.634964 0.00137431 0.570362 3.46179 -0.0257357 2.03217e-16 0.0 3.88251e-19 10.4354 -12.7901 -8.33746 0.0505527 22.3735 -0.584407 5.7802 -17.2988 18.0738
-5.94332 83.9049 31.9573 -3.6257 -0.4759 3.2943 -9.75139 6.96519 6.77717 -2.69427 -1.56273 1.7101 -1.82003 3.96859 1.01032 -0.522533 18.3388 2.68562 -0.0 0.0 0.0 -0.0 0.0 0.0 2.3514e-14 1.57417e-13 1.06648e-13 -22.0 39.4379 54.9521 -26.3892 -45.4788 94.4503 -0.329251 -16.1095 -2.32629 8.68934e-10 -6.91287e-10 4.22486e-10 1.49626e-09 -1.20379e-09 7.40743e-10 8.68931e-10 -6.91282e-10 4.22479e-10 7.73091 5.47488 0.417314 8.68932e-10 -6.91281e-10 4.22479e-10 2.90554 0.965183 0.102902 8.68944e-10 -6.9128e-10 4.22483e-10 10.2786 0.731801 0.0259123 8.6894e-10 -6.9128e-10 4.22489e-10 2.22167 -0.733487 -0.20892 2.34005e-14 1.57458e-13 1.06399e-13 0.124683 36.7923 -54.8801 27.7805 -29.4334 -66.3453 2.61921 -40.9552 7.00624 -1.21278e-10 -3.64911e-09 -8.89642e-10 -1.79369e-10 -6.3865e-09 -1.53921e-09 -1.21279e-10 -3.64913e-09 -8.89633e-10 -7.73091 5.47488 -0.417314 -1.21275e-10 -3.64911e-09 -8.89636e-10 -2.90554 0.965183 -0.102902 -1.21287e-10 -3.64911e-09 -8.89642e-10 -10.2786 0.731801 -0.0259123 -1.21273e-10 -3.64911e-09 -8.89652e-10 -2.22167 -0.733487 0.20892 -2.03217e-16 0.0 -3.88251e-19 -21.7187 -2.82999 -0.00892196 8.82011e-05 -0.634309 0.00127936 0.568747 3.46135 -0.0255094 2.03217e-16 0.0 3.88251e-19 10.3984 -12.7963 -8.28714 0.0505886 22.3754 -0.584852 5.78651 -17.2987 18.0851
-5.92186 83.909 31.9479 -3.589 -0.5459 3.3264 -9.72036 6.98313 6.8535 -2.67031 -1.57342 1.73196 -1.83239 3.99458 1.00219 -0.562084 18.3733 2.67872 -0.0 0.0 0.0 -0.0 0.0 0.0 -4.06666e-14 1.36198e-13 9.13346e-14 -21.2497 38.5916 54.9962 -26.8497 -44.6101 92.3914 -0.061539 -11.0191 -1.55763 1.01047e-09 -5.57848e-10 2.88335e-10 1.74298e-09 -9.71954e-10 5.06584e-10 1.01047e-09 -5.57843e-10 2.88329e-10 7.73091 5.47488 0.417314 1.01047e-09 -5.57843e-10 2.88331e-10 2.90554 0.965183 0.102902 1.01048e-09 -5.57842e-10 2.88331e-10 10.2786 0.731801 0.0259123 1.01047e-09 -5.57842e-10 2.88337e-10 2.22167 -0.733487 -0.20892 -4.07708e-14 1.36236e-13 9.10671e-14 0.0351586 36.6785 -54.9324 27.7766 -29.4142 -66.3146 2.62367 -40.9826 7.01304 -1.58712e-10 -3.66459e-09 -9.14362e-10 -2.42517e-10 -6.42036e-09 -1.583e-09 -1.58713e-10 -3.6646e-09 -9.14351e-10 -7.73091 5.47488 -0.417314 -1.5871e-10 -3.66458e-09 -9.14355e-10 -2.90554 0.965183 -0.102902 -1.5872e-10 -3.66459e-09 -9.1436e-10 -10.2786 0.731801 -0.0259123 -1.58706e-10 -3.66458e-09 -9.14369e-10 -2.22167 -0.733487 0.20892 -2.03217e-16 0.0 -3.88251e-19 -21.7175 -2.83076 -0.00895218 8.43965e-05 -0.632901 0.00124358 0.568034 3.46072 -0.0254143 2.03217e-16 0.0 3.88251e-19 10.3977 -12.7996 -8.19499 0.0507917 22.3797 -0.586702 5.78433 -17.2785 18.0913
